<?xml version="1.0" encoding="UTF-8" standalone="no"?>
<!DOCTYPE svg PUBLIC "-//W3C//DTD SVG 1.1//EN" "http://www.w3.org/Graphics/SVG/1.1/DTD/svg11.dtd">
<svg width="100%" height="100%" viewBox="0 1070 4371 2271" version="1.1" xmlns="http://www.w3.org/2000/svg" xmlns:xlink="http://www.w3.org/1999/xlink" xml:space="preserve" xmlns:serif="http://www.serif.com/" style="fill-rule:evenodd;clip-rule:evenodd;stroke-linejoin:round;stroke-miterlimit:2;">
    <clipPath id="_clip1">
        <rect x="0" y="0" width="4370.08" height="4370.08"/>
    </clipPath>
    <g clip-path="url(#_clip1)">
        <path d="M2284.01,2911.91C2283.8,2799.02 2283.59,2686.13 2283.37,2573.23C2283.33,2551.94 2280.47,2526.02 2261.04,2517.32C2244.09,2509.73 2223.84,2520.26 2205.94,2515.3C2202.63,2506.95 2201.53,2497.74 2202.78,2488.84C2259.09,2471.49 2316.8,2458.7 2375.17,2450.65C2373.45,2493.89 2375.01,2537.25 2379.82,2580.25C2397.15,2555.28 2415.51,2531.02 2434.85,2507.56C2459.57,2477.56 2489.96,2446.8 2528.75,2444.25C2558.02,2442.33 2588.18,2459.54 2599.51,2486.6C2610.84,2513.65 2600.9,2548.54 2575.9,2563.89C2550.91,2579.24 2513.8,2571.19 2499.01,2545.86C2492.38,2534.48 2476.47,2531.51 2463.97,2535.64C2451.47,2539.78 2441.59,2549.25 2432.16,2558.45C2413.26,2576.89 2393.83,2596.09 2384.06,2620.63C2375.22,2642.84 2375.1,2667.42 2375.11,2691.33C2375.13,2758.09 2375.15,2824.85 2375.17,2891.61C2375.18,2921.19 2376.41,2953.98 2396.95,2975.26C2419.4,2998.51 2455.86,2998.96 2488.16,2997.82C2489.16,3007.4 2490.16,3016.97 2491.16,3026.54C2394.15,3027.55 2297.14,3027.78 2200.13,3027.23C2196.31,3017.88 2195.73,3007.24 2198.5,2997.53C2230.13,3007.01 2267.54,2988.21 2278.8,2957.17C2284.01,2942.82 2284.04,2927.18 2284.01,2911.91L2284.01,2911.91Z" style="fill-rule:nonzero;"/>
        <path d="M3393.29,2449.71C3393.49,2605.27 3393.7,2760.84 3393.9,2916.41C3393.93,2938.26 3394.74,2962.26 3409.31,2978.55C3425.73,2996.89 3453.37,2998.68 3477.98,2998.61C3478.79,3007.9 3479.59,3017.19 3480.4,3026.48C3392.99,3027.52 3305.56,3027.81 3218.14,3027.34C3208.58,3018.08 3219.63,3001.25 3232.49,2997.79C3245.35,2994.33 3259.49,2997.44 3271.97,2992.78C3297.26,2983.35 3301.47,2949.96 3301.51,2922.96C3301.66,2807.66 3301.8,2692.35 3301.95,2577.05C3301.97,2565.17 3301.92,2552.95 3297.53,2541.91C3286.75,2514.76 3247.45,2504.31 3224.61,2522.51C3215.9,2513.7 3212.32,2500.16 3215.53,2488.2C3273.66,2470.74 3333.15,2457.86 3393.29,2449.71Z" style="fill-rule:nonzero;"/>
        <path d="M312.833,2605.04C314.201,2645.1 317.749,2685.55 310.844,2725.03C304.536,2761.09 289.722,2795.05 274.46,2828.33C205.91,2977.8 125.747,3121.95 34.932,3259.04C27.98,3256.91 21.028,3254.77 14.076,3252.64C53.587,3201.3 82.036,3142.49 110.198,3084.14C137.82,3026.92 165.443,2969.7 193.065,2912.47C218.817,2859.12 244.875,2804.82 254.254,2746.33C260.54,2707.13 259.134,2667.17 259.689,2627.48C262.985,2391.73 335.582,2162.97 369.154,1929.6C399.32,1719.91 397.872,1507.12 396.364,1295.28C396.178,1269.17 433.443,1257.12 455.838,1270.54C478.232,1283.96 488.004,1310.88 495.601,1335.86C551.19,1518.64 576.681,1710.54 570.737,1901.49C570.269,1916.54 563.859,1936.81 548.939,1934.78C525.581,1850.03 530.715,1760.48 526.059,1672.69C519.113,1541.73 489.791,1411.98 439.745,1290.76C418.054,1323.91 420.391,1366.67 422.876,1406.22C431.513,1543.69 432.394,1681.66 425.511,1819.23C423.377,1861.91 420.49,1904.6 414.221,1946.87C405.965,2002.53 391.895,2057.13 378.648,2111.81C339.473,2273.53 307.155,2438.74 312.833,2605.04Z" style="fill-rule:nonzero;"/>
        <path d="M3559.53,2488.31C3615.95,2472.05 3673.37,2459.25 3731.36,2450.01C3733.35,2482.7 3733.89,2515.48 3732.96,2548.22C3754.91,2543.84 3771.66,2526.75 3788.52,2512.01C3823.82,2481.16 3866.5,2457.26 3912.93,2450.68C3959.35,2444.1 4009.62,2456.54 4043.05,2489.42C4092.04,2537.61 4094.95,2614.32 4094.71,2683.04C4094.46,2752.46 4094.22,2821.88 4093.97,2891.3C4093.87,2918.75 4094.17,2947.72 4108.1,2971.37C4122.04,2995.02 4154.78,3009.9 4177.89,2995.09C4179.42,3005.51 4180.95,3015.94 4182.49,3026.36C4093.12,3027.69 4003.74,3027.89 3914.37,3026.97C3904.85,3019.97 3912.49,3003.64 3923.58,2999.55C3934.67,2995.46 3947.14,2997.95 3958.66,2995.29C3991.93,2987.61 4000.79,2945.03 4002.19,2910.92C4005.41,2832.77 4004.81,2754.45 4000.38,2676.36C3997.32,2622.32 3987.49,2560.1 3940.88,2532.59C3913.59,2516.48 3879,2516.76 3848.84,2526.48C3818.68,2536.19 3792.06,2554.39 3766.43,2573.01C3757.47,2579.52 3748.24,2586.5 3743.42,2596.47C3738.93,2605.75 3738.83,2616.47 3738.82,2626.78C3738.72,2723.59 3738.63,2820.4 3738.53,2917.2C3738.51,2946.37 3743.07,2982.53 3770.46,2992.54C3783.37,2997.25 3797.85,2994.25 3811.25,2997.27C3824.65,3000.29 3837.65,3015.18 3830.27,3026.76C3741.3,3027.49 3652.33,3027.66 3563.35,3027.28C3559.84,3018.8 3558.83,3009.3 3560.48,3000.27C3585.63,2998.79 3613.56,2996.02 3630.28,2977.18C3645.7,2959.8 3646.53,2934.32 3646.56,2911.09C3646.66,2806.12 3646.75,2701.16 3646.85,2596.19C3646.88,2569.13 3644.62,2537.53 3622.15,2522.46C3605.34,2511.18 3583.2,2513.63 3563.16,2516.51C3561.95,2507.11 3560.74,2497.71 3559.53,2488.31Z" style="fill-rule:nonzero;"/>
        <path d="M3267.25,1997.64C3267.26,2026.53 3272.76,2063.07 3300.63,2070.65C3312.65,2073.91 3325.64,2070.26 3337.8,2072.96C3349.96,2075.66 3360.88,2090.98 3352.34,2100.04C3296.73,2114.4 3240.11,2124.85 3183.04,2131.29C3180.32,2104.97 3179.72,2078.43 3181.25,2052.01C3165.53,2045.95 3149.76,2059.41 3137.21,2070.66C3096.58,2107.06 3043.76,2130.74 2989.23,2132.35C2934.7,2133.96 2879.01,2112.34 2843,2071.36C2816.3,2040.97 2801.35,2001.96 2791.85,1962.65C2773.72,1887.62 2774.01,1807.14 2800.04,1734.48C2826.08,1661.81 2879.13,1597.75 2949.12,1565.19C3019.1,1532.63 3105.72,1534.32 3170.88,1575.7C3175.58,1520.36 3177.04,1464.76 3175.25,1409.25C3174.83,1396.15 3174.11,1382.61 3168.24,1370.9C3155.93,1346.32 3119.74,1337.91 3097.85,1354.52C3089.34,1345.92 3085.83,1332.69 3088.95,1321.01C3146.18,1299.07 3206.07,1284.07 3266.89,1276.45C3267.01,1516.85 3267.13,1757.24 3267.25,1997.64M3176.01,1753.65C3176.14,1717.31 3175.85,1679.23 3158.55,1647.27C3130.69,1595.82 3061.89,1574.92 3006.18,1592.8C2950.46,1610.68 2908.97,1660.62 2890.33,1716.09C2871.68,1771.55 2873.34,1831.97 2882.81,1889.71C2891.6,1943.3 2910.27,2000.5 2956.02,2029.77C3001.75,2059.03 3061.62,2052.01 3113.68,2036.6C3142.18,2028.16 3175.11,2010.75 3175.22,1981.04C3175.48,1905.24 3175.75,1829.44 3176.01,1753.65L3176.01,1753.65Z" style="fill-rule:nonzero;"/>
        <path d="M3299.7,2244.69C3316.55,2225.18 3345.28,2216.88 3369.93,2224.4C3394.58,2231.92 3413.79,2254.85 3416.87,2280.43C3419.96,2306.02 3406.75,2332.86 3384.59,2346.02C3379.3,2349.16 3373.57,2351.58 3367.59,2353.04C3359.22,2355.09 3350.52,2355.26 3341.91,2355.42C3328.54,2355.67 3312.95,2354.86 3305.21,2343.97C3301.73,2339.08 3300.55,2332.95 3297.86,2327.59C3292.17,2316.28 3279.7,2308.05 3278.53,2295.43C3278.08,2290.6 3279.43,2285.8 3280.91,2281.18C3285.13,2268.07 3290.7,2255.12 3299.7,2244.69L3299.7,2244.69Z" style="fill-rule:nonzero;"/>
        <path d="M1557.9,2967.15C1575.24,2945.69 1576.05,2915.71 1576.05,2888.12C1576.05,2718.88 1576.06,2549.64 1576.07,2380.4C1576.07,2349.43 1574.54,2314.72 1552.01,2293.48C1529.47,2272.24 1494.74,2272.76 1463.82,2274.58C1460.42,2263.07 1459.48,2250.84 1461.07,2238.94C1564.27,2239.5 1667.47,2240.05 1770.66,2240.61C1823.65,2240.9 1877.37,2241.28 1928.47,2255.29C1979.58,2269.31 2028.64,2298.8 2054.8,2344.88C2084.11,2396.49 2079.83,2463.97 2048.53,2514.4C2017.24,2564.82 1961.51,2597.93 1902.82,2606.76C1902.25,2616.99 1915.82,2620.75 1926.01,2621.79C1995.81,2628.88 2061.65,2672.18 2092.93,2734.98C2124.2,2797.78 2118.33,2878.24 2075.71,2933.96C2042,2978.05 1989.24,3004.42 1935.13,3016.76C1881.02,3029.12 1824.93,3028.8 1769.44,3028.43C1666.6,3027.73 1563.76,3027.04 1460.92,3026.35C1461.05,3017.09 1461.18,3007.83 1461.31,2998.57C1496.29,2997.56 1535.9,2994.37 1557.9,2967.15M1769.14,2987.3C1803.36,2987.26 1837.92,2987.19 1871.3,2979.64C1904.68,2972.08 1937.26,2956.31 1958.89,2929.79C1981.81,2901.68 1990.33,2864.25 1991.27,2828C1992.38,2785.05 1982.82,2740.01 1954.89,2707.37C1924.58,2671.94 1877.3,2656 1831.35,2648.06C1786.57,2640.33 1740.73,2638.71 1695.51,2643.26C1690.39,2643.78 1684.64,2644.73 1681.69,2648.96C1679.57,2652 1679.49,2655.97 1679.49,2659.68C1679.53,2759.29 1679.56,2858.9 1679.6,2958.51C1679.6,2970.86 1683.5,2987.4 1695.85,2987.39C1720.28,2987.36 1744.71,2987.33 1769.14,2987.3M1755.31,2596.29C1788.03,2596.38 1821.11,2596.42 1852.93,2588.84C1884.75,2581.25 1915.69,2565.18 1934.88,2538.68C1957.22,2507.83 1960.89,2467.32 1959.17,2429.27C1957.94,2401.97 1953.98,2373.74 1939.2,2350.76C1924.64,2328.12 1900.84,2312.76 1875.8,2302.87C1819.96,2280.82 1757.87,2283.32 1697.9,2286.14C1692.74,2286.39 1687.04,2286.86 1683.42,2290.56C1679.71,2294.38 1679.48,2300.29 1679.48,2305.61C1679.5,2396 1679.53,2486.39 1679.55,2576.78C1679.55,2582.14 1679.78,2588.08 1683.52,2591.92C1687.37,2595.85 1693.5,2596.12 1699,2596.14C1717.77,2596.19 1736.54,2596.24 1755.31,2596.29Z" style="fill-rule:nonzero;"/>
        <path d="M724.661,1723.76C734.219,1709.99 745.332,1696.84 759.75,1688.29C774.168,1679.74 792.413,1676.35 807.944,1682.65C832.52,1692.63 842.306,1721.83 847.305,1747.88C852.851,1776.79 856.083,1806.14 856.958,1835.56C857.247,1845.28 857.367,1855.39 861.694,1864.1C856.157,1865.46 855.479,1872.97 856.007,1878.64C857.677,1896.58 859.347,1914.52 861.017,1932.46C858.906,1948.87 855.86,1965.16 851.899,1981.22C849.121,1992.49 840.628,2006.56 829.816,2002.35C822.299,1999.42 820.772,1989.64 820.409,1981.58C817.344,1913.63 814.28,1845.68 811.215,1777.73C810.777,1768.02 810.068,1757.56 803.908,1750.04C794.798,1738.91 776.824,1739.06 764.539,1746.54C752.255,1754.01 744.372,1766.82 737.181,1779.27C717.618,1813.13 699.685,1847.94 683.462,1883.53C680.847,1880.36 678.232,1877.2 675.617,1874.03C676.915,1820.6 694.192,1767.67 724.661,1723.76Z" style="fill-rule:nonzero;"/>
        <path d="M3.255,3262.18C6.037,3263.38 8.819,3264.58 11.601,3265.78C8.687,3268.75 5.773,3271.72 2.859,3274.68C-0.959,3272.23 -0.951,3265.67 2.873,3263.22L3.255,3262.18Z" style="fill-rule:nonzero;"/>
        <path d="M1575.95,1979.82C1575.98,1810.44 1576,1641.06 1576.03,1471.68C1576.04,1452.17 1575.97,1432.24 1569.64,1413.78C1563.31,1395.32 1549.45,1378.28 1530.54,1373.49C1515.24,1369.61 1498.9,1374.08 1483.39,1371.13C1467.89,1368.17 1452.75,1350.95 1461.35,1337.72C1575.02,1334.91 1688.77,1334.83 1802.44,1337.48C1853.28,1338.67 1905.01,1340.56 1953.08,1357.17C2001.14,1373.77 2045.82,1407.49 2063.41,1455.2C2070.16,1473.5 2072.71,1493.13 2073.02,1512.63C2073.64,1551.6 2064.88,1591.75 2041.88,1623.21C2008.63,1668.71 1951.9,1689.33 1898.57,1707.54C1976.4,1720.59 2056.2,1757.78 2092.57,1827.81C2107.46,1856.48 2114.12,1889.23 2112.56,1921.49C2110.1,1972.42 2086.73,2022.04 2049.03,2056.37C1977.85,2121.2 1871.81,2124.65 1775.53,2124.54C1671.63,2124.41 1567.72,2124.29 1463.81,2124.16C1460.52,2113.84 1459.55,2102.78 1461,2092.04C1486.68,2087.02 1515.02,2093.38 1538.13,2081.11C1571.68,2063.3 1575.94,2017.8 1575.95,1979.82M1986.24,1863.04C1972.74,1807.15 1921.12,1766.87 1866.02,1750.44C1810.91,1734.02 1752.13,1737.22 1694.73,1740.57C1690.09,1740.84 1684.87,1741.4 1681.98,1745.03C1679.66,1747.94 1679.55,1751.98 1679.55,1755.69C1679.54,1856.27 1679.53,1956.85 1679.52,2057.43C1679.52,2063.57 1679.79,2070.4 1684.14,2074.74C1687.57,2078.16 1692.69,2079.11 1697.49,2079.82C1752.29,2087.93 1808.48,2086.55 1862.81,2075.74C1895.35,2069.26 1928.63,2058.61 1952.08,2035.14C1984.34,2002.85 1991.4,1953.32 1990.8,1907.69C1990.61,1892.7 1989.76,1877.61 1986.24,1863.04M1862.01,1393.71C1828.17,1383.6 1792.57,1379.42 1757.3,1381.41C1737.41,1381.76 1717.53,1382.1 1697.64,1382.44C1692.17,1382.54 1685.96,1382.97 1682.49,1387.2C1679.73,1390.56 1679.6,1395.28 1679.6,1399.62C1679.54,1489.92 1679.49,1580.22 1679.44,1670.52C1679.43,1677.6 1680.02,1685.86 1685.89,1689.81C1689.24,1692.07 1693.53,1692.29 1697.57,1692.42C1751.16,1694.26 1805.68,1696 1857.52,1682.26C1888.76,1673.99 1920.04,1658.85 1937.71,1631.79C1947.27,1617.15 1952.19,1599.98 1955.61,1582.83C1961.76,1552.03 1963.38,1519.85 1955.86,1489.35C1948.33,1458.85 1931.01,1430.1 1904.9,1412.63C1891.86,1403.91 1877.04,1398.19 1862.01,1393.71L1862.01,1393.71Z" style="fill-rule:nonzero;"/>
        <path d="M892.616,1745.42C886.619,1743.71 883.951,1736.15 885.447,1730.1C886.942,1724.05 891.391,1719.22 895.725,1714.74C918.651,1691.02 943.728,1668.15 974.365,1655.93C981.83,1652.95 989.833,1650.61 997.817,1651.53C1011.88,1653.16 1023.13,1664.84 1028.42,1677.97C1033.7,1691.1 1034.12,1705.6 1034.48,1719.75C1035.52,1761.33 1036.55,1802.9 1037.59,1844.48C1038.36,1875.38 1039.12,1906.5 1033.96,1936.97C1031.9,1949.15 1028.1,1962.35 1017.73,1969.08C1007.36,1975.81 989.485,1969.98 989.835,1957.63C990.285,1941.75 990.736,1925.88 991.186,1910.01C991.497,1899.05 991.808,1888.09 992.119,1877.12C993.247,1837.37 994.375,1797.62 995.502,1757.86C995.894,1744.06 996.034,1729.3 988.551,1717.69C981.069,1706.09 962.854,1700.49 953.282,1710.44C939.346,1724.93 922.276,1736.39 903.589,1743.8C900.087,1745.19 896.239,1746.46 892.616,1745.42L892.616,1745.42Z" style="fill-rule:nonzero;"/>
        <path d="M2618.12,1774.49C2617.51,1851.41 2616.9,1928.33 2616.29,2005.25C2616.2,2016.68 2616.19,2028.52 2620.84,2038.96C2629.54,2058.53 2655.57,2068.14 2674.9,2058.91C2683.8,2054.67 2690.88,2047.29 2699.69,2042.85C2708.5,2038.42 2720.88,2038 2726.67,2045.98C2711.04,2072.97 2690.99,2098.26 2664.3,2114.38C2637.6,2130.51 2603.44,2136.34 2574.7,2124.23C2545.96,2112.11 2525.42,2079.79 2531.94,2049.29C2510.97,2055.04 2494.86,2071.24 2477.88,2084.81C2435.02,2119.06 2378.95,2139.14 2324.7,2130.88C2270.46,2122.62 2220.12,2082.71 2207.53,2029.3C2193.36,1969.18 2228.41,1906.08 2277.75,1868.92C2327.09,1831.76 2388.44,1815.09 2448.13,1799.22C2467.38,1794.09 2486.63,1788.97 2505.88,1783.85C2522,1779.57 2524.88,1758.25 2524.49,1741.57C2523.83,1712.88 2523.12,1683.81 2515.06,1656.27C2507.01,1628.72 2490.63,1602.42 2465.47,1588.62C2445.54,1577.68 2421.93,1575.45 2399.23,1576.69C2377.08,1577.9 2352.92,1583.53 2339.85,1601.46C2316.34,1633.73 2341.44,1686.51 2314.24,1715.74C2295.09,1736.33 2257.42,1730.16 2240.89,1707.41C2224.37,1684.65 2226.97,1651.9 2241.43,1627.78C2255.88,1603.66 2280.11,1586.96 2305.32,1574.5C2359.43,1547.76 2421.52,1537.41 2481.38,1545.16C2503.52,1548.03 2525.71,1553.46 2544.9,1564.88C2578.28,1584.75 2599.26,1621.05 2608.97,1658.66C2618.67,1696.28 2618.43,1735.64 2618.12,1774.49M2525.11,1987.98C2525.17,1937.31 2525.22,1886.64 2525.28,1835.97C2525.29,1828.74 2524.54,1820.13 2518.25,1816.56C2490.9,1821.24 2463.91,1827.99 2437.57,1836.74C2407.97,1846.57 2378.82,1859.16 2354.48,1878.67C2330.14,1898.17 2310.84,1925.28 2305.53,1956.02C2303.31,1968.87 2303.57,1982.15 2306.27,1994.91C2312.22,2022.95 2330.88,2048.47 2356.76,2060.8C2379.66,2071.7 2406.59,2071.95 2431.15,2065.63C2455.71,2059.32 2478.25,2046.88 2499.58,2033.15C2508.41,2027.46 2517.52,2021.03 2521.8,2011.43C2525.04,2004.16 2525.1,1995.93 2525.11,1987.98Z" style="fill-rule:nonzero;"/>
        <path d="M1290.23,1207.25C1224.62,1338.45 1159.02,1469.65 1093.41,1600.85C1080.73,1626.2 1066.63,1653.08 1041.73,1666.63C1034.52,1650.67 1042.19,1632.28 1049.79,1616.51C1113.51,1484.07 1177.23,1351.63 1240.95,1219.19C1264.78,1169.67 1292.82,1116.05 1343.75,1095.39C1380.73,1137.62 1369.41,1202.1 1355.08,1256.38C1298.03,1472.48 1227.59,1685.05 1144.29,1892.45C1133.93,1918.24 1122.74,1944.87 1102.11,1963.48C1088.02,1953.74 1082.26,1935.15 1083.41,1918.06C1084.56,1900.97 1091.49,1884.88 1098.24,1869.13C1195.17,1643.09 1276.27,1410.26 1340.77,1172.91C1320.37,1162.84 1300.4,1186.9 1290.23,1207.25L1290.23,1207.25Z" style="fill-rule:nonzero;"/>
        <path d="M2989,2470.82C3020.11,2490.17 3039.42,2524.59 3048.24,2560.15C3057.06,2595.71 3056.61,2632.82 3056.1,2669.46C3055.13,2739.76 3054.16,2810.06 3053.19,2880.37C3052.89,2901.92 3052.87,2924.62 3063.42,2943.41C3073.97,2962.21 3099.02,2974.69 3117.76,2964.04C3125.95,2959.39 3131.66,2951.21 3139.79,2946.47C3147.92,2941.72 3161,2942.64 3163.76,2951.64C3165.64,2957.76 3161.7,2964.02 3157.82,2969.1C3132.12,3002.82 3096.46,3033.2 3054.14,3035.68C3011.81,3038.17 2966.69,3000.56 2975.1,2959C2955.27,2957.02 2938.53,2972.31 2923.2,2985.04C2883.05,3018.36 2831.98,3040.81 2779.86,3038.51C2727.74,3036.21 2675.62,3006.01 2655.24,2957.98C2628.57,2895.12 2662.11,2819.71 2715.37,2776.97C2768.62,2734.22 2837.16,2716.59 2903.42,2700.06C2917.02,2696.66 2930.62,2693.27 2944.23,2689.88C2955.86,2686.97 2960.56,2673.2 2962.59,2661.38C2969.36,2621.91 2967.33,2579.81 2949.44,2543.99C2931.55,2508.16 2895.93,2479.85 2855.95,2477.6C2815.96,2475.36 2774.47,2503.73 2768.21,2543.29C2764.28,2568.15 2772.97,2596.26 2758.95,2617.17C2745.27,2637.57 2713.18,2640.03 2693.68,2625.09C2674.19,2610.15 2667.37,2582.44 2673.02,2558.53C2678.67,2534.63 2694.97,2514.38 2714.15,2499.04C2762.39,2460.47 2827.37,2450.13 2889.13,2449.8C2923.61,2449.61 2959.71,2452.61 2989,2470.82M2790.66,2961.97C2816.64,2977.43 2849.62,2977.28 2878.5,2968.31C2907.38,2959.34 2933.04,2942.43 2958.06,2925.45C2961.9,2922.85 2962.28,2917.44 2962.28,2912.81C2962.28,2852.19 2962.27,2791.57 2962.27,2730.95C2962.27,2727.86 2962.03,2724.28 2959.51,2722.5C2957.28,2720.92 2954.24,2721.48 2951.58,2722.11C2917.8,2730.21 2884.59,2740.71 2852.29,2753.51C2824.56,2764.49 2796.73,2777.71 2776.6,2799.72C2758.41,2819.62 2747.64,2846.09 2746.44,2873.02C2744.9,2907.76 2760.77,2944.19 2790.66,2961.97L2790.66,2961.97Z" style="fill-rule:nonzero;"/>
        <path d="M4286.7,3021.86C4282.74,3021.72 4278.56,3021.51 4275.25,3019.34C4272.27,3017.39 4270.44,3014.15 4268.72,3011.03C4261.87,2998.57 4255.02,2986.11 4248.17,2973.65C4246.12,2969.94 4244.03,2966.04 4243.91,2961.8C4243.76,2956.17 4247.1,2951.12 4250.3,2946.49C4254.15,2940.92 4258,2935.35 4261.85,2929.78C4264.92,2925.34 4268.01,2920.88 4271.68,2916.91C4281.5,2906.29 4295.75,2899.54 4310.21,2900C4326.32,2900.51 4340.79,2909.43 4354.4,2918.06C4366.42,2925.69 4372.64,2941.43 4369.08,2955.22C4367.61,2960.93 4364.88,2967.72 4368.83,2972.1C4368.36,2987.31 4360.36,3002.1 4347.88,3010.82C4330.57,3022.9 4307.8,3022.61 4286.7,3021.86Z" style="fill-rule:nonzero;"/>
        <path d="M610.62,2431.6C605.088,2449.39 599.301,2467.66 587.513,2482.08C579.258,2492.18 568.074,2500.41 563.394,2512.59C556.932,2529.4 536.728,2539.55 519.381,2534.71C513.79,2537.83 507.35,2541.05 501.26,2539.07C495.17,2537.09 492.716,2526.86 498.72,2524.63C519.442,2516.94 535.176,2499.78 548.002,2481.77C567.008,2455.09 581.51,2425.21 590.709,2393.77C600.843,2359.13 604.523,2322.77 603.368,2286.7C603.007,2275.43 619.357,2269.45 628.425,2276.16C637.493,2282.87 638.793,2296.5 634.658,2306.99C640.783,2309.16 636.396,2318.09 634.091,2324.16C631.702,2330.46 632.992,2337.45 633.197,2344.18C633.605,2357.56 629.587,2370.63 625.611,2383.41C620.614,2399.48 615.617,2415.54 610.62,2431.6Z" style="fill-rule:nonzero;"/>
        <path d="M997.934,2182.02C1013.64,2162.38 1041.47,2153.36 1065.71,2160.07C1046.86,2170.18 1030.19,2184.32 1017.14,2201.26C1006.56,2214.98 998.167,2230.68 985.022,2241.98C952.242,2270.16 901.97,2261.98 862.092,2245.3C829.579,2231.7 791.251,2213.76 761.649,2232.89C739.175,2247.41 708.66,2243.7 685.305,2230.64C661.95,2217.58 644.183,2196.66 626.949,2176.2C615.745,2162.89 604.082,2148.58 601.743,2131.35C598.601,2108.19 613.789,2085.64 633.498,2073.09C653.208,2060.53 676.791,2055.93 699.749,2051.57C830.268,2026.78 960.787,2001.99 1091.31,1977.2C1169.33,1962.38 1254.25,1948.46 1324.76,1984.99C1341.98,1993.91 1358.64,2006.87 1364.59,2025.34C1374.34,2055.61 1352.37,2086.16 1331.36,2110.02C1205.49,2252.95 1063.3,2380.44 921.479,2507.55C894.304,2531.91 867.129,2556.26 839.955,2580.62C777.31,2636.77 714.666,2692.92 652.021,2749.07C625.826,2772.55 599.37,2796.22 568.785,2813.59C551.649,2823.33 541.678,2841.76 532.59,2859.25C478.08,2964.15 423.569,3069.04 369.059,3173.94C354.319,3169.49 346.384,3152.46 347.239,3137.09C348.094,3121.72 355.646,3107.62 363.027,3094.11C411.701,3005 460.375,2915.89 509.049,2826.77C513.731,2818.2 518.496,2809.51 525.294,2802.5C535.346,2792.13 548.994,2786.25 561.701,2779.38C607.117,2754.86 642.853,2716.09 678.389,2678.66C795.419,2555.38 919.78,2439.07 1050.6,2330.53C1138.52,2257.59 1217.91,2174.39 1286.66,2083.15C1298.7,2067.17 1310.84,2049.88 1312.76,2029.96C1269.34,1998.97 1210.54,2005.22 1157.81,2013.26C990.512,2038.79 823.941,2069.04 658.355,2103.97C646.742,2106.42 641.32,2121.12 644.556,2132.53C647.792,2143.95 656.929,2152.59 665.809,2160.47C681.525,2174.4 698.207,2188.16 718.181,2194.66C738.155,2201.15 762.317,2198.87 776.99,2183.84C792.914,2167.53 819.408,2183.01 838.698,2195.16C888.057,2226.23 961.518,2227.58 997.934,2182.02Z" style="fill-rule:nonzero;"/>
    </g>
</svg>
